<mxfile host="Electron" modified="2024-08-08T09:32:07.623Z" agent="Mozilla/5.0 (Windows NT 10.0; Win64; x64) AppleWebKit/537.36 (KHTML, like Gecko) draw.io/24.1.0 Chrome/120.0.6099.109 Electron/28.1.0 Safari/537.36" etag="xy6HzPkWIi6XI8KCuJTQ" version="24.1.0" type="device">
  <diagram name="Page-1" id="0ac9LLvcB2eQMqfCzsqt">
    <mxGraphModel dx="1947" dy="524" grid="1" gridSize="10" guides="1" tooltips="1" connect="1" arrows="1" fold="1" page="1" pageScale="1" pageWidth="827" pageHeight="1169" math="0" shadow="0">
      <root>
        <mxCell id="0" />
        <mxCell id="1" parent="0" />
        <mxCell id="QHZlH81MAdBWwkxoOKhm-1" value="Activity" style="swimlane;childLayout=stackLayout;resizeParent=1;resizeParentMax=0;startSize=20;html=1;" vertex="1" parent="1">
          <mxGeometry x="-20" y="20" width="480" height="1260" as="geometry" />
        </mxCell>
        <mxCell id="QHZlH81MAdBWwkxoOKhm-2" value="User" style="swimlane;startSize=20;html=1;" vertex="1" parent="QHZlH81MAdBWwkxoOKhm-1">
          <mxGeometry y="20" width="120" height="1240" as="geometry" />
        </mxCell>
        <mxCell id="QHZlH81MAdBWwkxoOKhm-9" style="edgeStyle=orthogonalEdgeStyle;rounded=0;orthogonalLoop=1;jettySize=auto;html=1;entryX=0.5;entryY=0;entryDx=0;entryDy=0;" edge="1" parent="QHZlH81MAdBWwkxoOKhm-2" source="QHZlH81MAdBWwkxoOKhm-6" target="QHZlH81MAdBWwkxoOKhm-8">
          <mxGeometry relative="1" as="geometry" />
        </mxCell>
        <mxCell id="QHZlH81MAdBWwkxoOKhm-6" value="" style="ellipse;html=1;shape=startState;fillColor=#000000;strokeColor=#ff0000;" vertex="1" parent="QHZlH81MAdBWwkxoOKhm-2">
          <mxGeometry x="45" y="40" width="30" height="30" as="geometry" />
        </mxCell>
        <mxCell id="QHZlH81MAdBWwkxoOKhm-11" style="edgeStyle=orthogonalEdgeStyle;rounded=0;orthogonalLoop=1;jettySize=auto;html=1;entryX=0.5;entryY=0;entryDx=0;entryDy=0;" edge="1" parent="QHZlH81MAdBWwkxoOKhm-2" source="QHZlH81MAdBWwkxoOKhm-8" target="QHZlH81MAdBWwkxoOKhm-10">
          <mxGeometry relative="1" as="geometry" />
        </mxCell>
        <mxCell id="QHZlH81MAdBWwkxoOKhm-8" value="Submit Emergency&lt;div&gt;Request&lt;/div&gt;" style="html=1;dashed=0;whiteSpace=wrap;" vertex="1" parent="QHZlH81MAdBWwkxoOKhm-2">
          <mxGeometry x="7.5" y="110" width="105" height="50" as="geometry" />
        </mxCell>
        <mxCell id="QHZlH81MAdBWwkxoOKhm-13" style="edgeStyle=orthogonalEdgeStyle;rounded=0;orthogonalLoop=1;jettySize=auto;html=1;" edge="1" parent="QHZlH81MAdBWwkxoOKhm-2" source="QHZlH81MAdBWwkxoOKhm-10" target="QHZlH81MAdBWwkxoOKhm-12">
          <mxGeometry relative="1" as="geometry" />
        </mxCell>
        <mxCell id="QHZlH81MAdBWwkxoOKhm-10" value="Create EmergencyRequest in EmergencyService" style="html=1;dashed=0;whiteSpace=wrap;" vertex="1" parent="QHZlH81MAdBWwkxoOKhm-2">
          <mxGeometry x="3.75" y="200" width="112.5" height="90" as="geometry" />
        </mxCell>
        <mxCell id="QHZlH81MAdBWwkxoOKhm-12" value="Confirm Emergency Request Creation" style="html=1;dashed=0;whiteSpace=wrap;" vertex="1" parent="QHZlH81MAdBWwkxoOKhm-2">
          <mxGeometry x="7.5" y="320" width="105" height="50" as="geometry" />
        </mxCell>
        <mxCell id="QHZlH81MAdBWwkxoOKhm-3" value="Backend" style="swimlane;startSize=20;html=1;" vertex="1" parent="QHZlH81MAdBWwkxoOKhm-1">
          <mxGeometry x="120" y="20" width="120" height="1240" as="geometry" />
        </mxCell>
        <mxCell id="QHZlH81MAdBWwkxoOKhm-19" style="edgeStyle=orthogonalEdgeStyle;rounded=0;orthogonalLoop=1;jettySize=auto;html=1;entryX=0.5;entryY=0;entryDx=0;entryDy=0;" edge="1" parent="QHZlH81MAdBWwkxoOKhm-3" source="QHZlH81MAdBWwkxoOKhm-14" target="QHZlH81MAdBWwkxoOKhm-17">
          <mxGeometry relative="1" as="geometry" />
        </mxCell>
        <mxCell id="QHZlH81MAdBWwkxoOKhm-14" value="" style="ellipse;html=1;shape=startState;fillColor=#000000;strokeColor=#ff0000;" vertex="1" parent="QHZlH81MAdBWwkxoOKhm-3">
          <mxGeometry x="45" y="420" width="30" height="30" as="geometry" />
        </mxCell>
        <mxCell id="QHZlH81MAdBWwkxoOKhm-21" style="edgeStyle=orthogonalEdgeStyle;rounded=0;orthogonalLoop=1;jettySize=auto;html=1;entryX=0.5;entryY=0;entryDx=0;entryDy=0;" edge="1" parent="QHZlH81MAdBWwkxoOKhm-3" source="QHZlH81MAdBWwkxoOKhm-17" target="QHZlH81MAdBWwkxoOKhm-20">
          <mxGeometry relative="1" as="geometry" />
        </mxCell>
        <mxCell id="QHZlH81MAdBWwkxoOKhm-17" value="Notify Staff" style="html=1;dashed=0;whiteSpace=wrap;" vertex="1" parent="QHZlH81MAdBWwkxoOKhm-3">
          <mxGeometry x="10" y="490" width="100" height="50" as="geometry" />
        </mxCell>
        <mxCell id="QHZlH81MAdBWwkxoOKhm-20" value="Update Status to In Progress" style="html=1;dashed=0;whiteSpace=wrap;" vertex="1" parent="QHZlH81MAdBWwkxoOKhm-3">
          <mxGeometry x="10" y="585" width="100" height="50" as="geometry" />
        </mxCell>
        <mxCell id="QHZlH81MAdBWwkxoOKhm-4" value="Emergency" style="swimlane;startSize=20;html=1;" vertex="1" parent="QHZlH81MAdBWwkxoOKhm-1">
          <mxGeometry x="240" y="20" width="120" height="1240" as="geometry" />
        </mxCell>
        <mxCell id="QHZlH81MAdBWwkxoOKhm-26" style="edgeStyle=orthogonalEdgeStyle;rounded=0;orthogonalLoop=1;jettySize=auto;html=1;entryX=0.5;entryY=0;entryDx=0;entryDy=0;" edge="1" parent="QHZlH81MAdBWwkxoOKhm-4" source="QHZlH81MAdBWwkxoOKhm-22" target="QHZlH81MAdBWwkxoOKhm-25">
          <mxGeometry relative="1" as="geometry" />
        </mxCell>
        <mxCell id="QHZlH81MAdBWwkxoOKhm-22" value="" style="ellipse;html=1;shape=startState;fillColor=#000000;strokeColor=#ff0000;" vertex="1" parent="QHZlH81MAdBWwkxoOKhm-4">
          <mxGeometry x="45" y="670" width="30" height="30" as="geometry" />
        </mxCell>
        <mxCell id="QHZlH81MAdBWwkxoOKhm-28" style="edgeStyle=orthogonalEdgeStyle;rounded=0;orthogonalLoop=1;jettySize=auto;html=1;entryX=0.5;entryY=0;entryDx=0;entryDy=0;" edge="1" parent="QHZlH81MAdBWwkxoOKhm-4" source="QHZlH81MAdBWwkxoOKhm-25" target="QHZlH81MAdBWwkxoOKhm-27">
          <mxGeometry relative="1" as="geometry" />
        </mxCell>
        <mxCell id="QHZlH81MAdBWwkxoOKhm-25" value="Resolve the Emergency" style="html=1;dashed=0;whiteSpace=wrap;" vertex="1" parent="QHZlH81MAdBWwkxoOKhm-4">
          <mxGeometry x="10" y="730" width="100" height="50" as="geometry" />
        </mxCell>
        <mxCell id="QHZlH81MAdBWwkxoOKhm-27" value="Update Status to Resolved" style="html=1;dashed=0;whiteSpace=wrap;" vertex="1" parent="QHZlH81MAdBWwkxoOKhm-4">
          <mxGeometry x="10" y="820" width="100" height="50" as="geometry" />
        </mxCell>
        <mxCell id="QHZlH81MAdBWwkxoOKhm-5" value="Rating" style="swimlane;startSize=20;html=1;" vertex="1" parent="QHZlH81MAdBWwkxoOKhm-1">
          <mxGeometry x="360" y="20" width="120" height="1240" as="geometry" />
        </mxCell>
        <mxCell id="QHZlH81MAdBWwkxoOKhm-32" style="edgeStyle=orthogonalEdgeStyle;rounded=0;orthogonalLoop=1;jettySize=auto;html=1;entryX=0.5;entryY=0;entryDx=0;entryDy=0;" edge="1" parent="QHZlH81MAdBWwkxoOKhm-5" source="QHZlH81MAdBWwkxoOKhm-29" target="QHZlH81MAdBWwkxoOKhm-31">
          <mxGeometry relative="1" as="geometry" />
        </mxCell>
        <mxCell id="QHZlH81MAdBWwkxoOKhm-29" value="Submit a Rating Request to User" style="html=1;dashed=0;whiteSpace=wrap;" vertex="1" parent="QHZlH81MAdBWwkxoOKhm-5">
          <mxGeometry x="10" y="910" width="100" height="50" as="geometry" />
        </mxCell>
        <mxCell id="QHZlH81MAdBWwkxoOKhm-34" style="edgeStyle=orthogonalEdgeStyle;rounded=0;orthogonalLoop=1;jettySize=auto;html=1;entryX=0.5;entryY=0;entryDx=0;entryDy=0;" edge="1" parent="QHZlH81MAdBWwkxoOKhm-5" source="QHZlH81MAdBWwkxoOKhm-31" target="QHZlH81MAdBWwkxoOKhm-33">
          <mxGeometry relative="1" as="geometry" />
        </mxCell>
        <mxCell id="QHZlH81MAdBWwkxoOKhm-31" value="Create ServiceRating in RatingService" style="html=1;dashed=0;whiteSpace=wrap;" vertex="1" parent="QHZlH81MAdBWwkxoOKhm-5">
          <mxGeometry x="10" y="1000" width="100" height="50" as="geometry" />
        </mxCell>
        <mxCell id="QHZlH81MAdBWwkxoOKhm-36" style="edgeStyle=orthogonalEdgeStyle;rounded=0;orthogonalLoop=1;jettySize=auto;html=1;entryX=0.5;entryY=0;entryDx=0;entryDy=0;" edge="1" parent="QHZlH81MAdBWwkxoOKhm-5" source="QHZlH81MAdBWwkxoOKhm-33" target="QHZlH81MAdBWwkxoOKhm-35">
          <mxGeometry relative="1" as="geometry" />
        </mxCell>
        <mxCell id="QHZlH81MAdBWwkxoOKhm-33" value="Notify the User of Rating Creation" style="html=1;dashed=0;whiteSpace=wrap;" vertex="1" parent="QHZlH81MAdBWwkxoOKhm-5">
          <mxGeometry x="10" y="1090" width="100" height="50" as="geometry" />
        </mxCell>
        <mxCell id="QHZlH81MAdBWwkxoOKhm-35" value="" style="ellipse;html=1;shape=endState;fillColor=#000000;strokeColor=#ff0000;" vertex="1" parent="QHZlH81MAdBWwkxoOKhm-5">
          <mxGeometry x="45" y="1180" width="30" height="30" as="geometry" />
        </mxCell>
        <mxCell id="QHZlH81MAdBWwkxoOKhm-18" style="edgeStyle=orthogonalEdgeStyle;rounded=0;orthogonalLoop=1;jettySize=auto;html=1;entryX=0.5;entryY=0;entryDx=0;entryDy=0;" edge="1" parent="QHZlH81MAdBWwkxoOKhm-1" source="QHZlH81MAdBWwkxoOKhm-12" target="QHZlH81MAdBWwkxoOKhm-14">
          <mxGeometry relative="1" as="geometry">
            <Array as="points">
              <mxPoint x="60" y="420" />
              <mxPoint x="180" y="420" />
            </Array>
          </mxGeometry>
        </mxCell>
        <mxCell id="QHZlH81MAdBWwkxoOKhm-24" style="edgeStyle=orthogonalEdgeStyle;rounded=0;orthogonalLoop=1;jettySize=auto;html=1;entryX=0.5;entryY=0;entryDx=0;entryDy=0;" edge="1" parent="QHZlH81MAdBWwkxoOKhm-1" source="QHZlH81MAdBWwkxoOKhm-20" target="QHZlH81MAdBWwkxoOKhm-22">
          <mxGeometry relative="1" as="geometry">
            <Array as="points">
              <mxPoint x="180" y="670" />
              <mxPoint x="300" y="670" />
            </Array>
          </mxGeometry>
        </mxCell>
        <mxCell id="QHZlH81MAdBWwkxoOKhm-30" style="edgeStyle=orthogonalEdgeStyle;rounded=0;orthogonalLoop=1;jettySize=auto;html=1;entryX=0.5;entryY=0;entryDx=0;entryDy=0;" edge="1" parent="QHZlH81MAdBWwkxoOKhm-1" source="QHZlH81MAdBWwkxoOKhm-27" target="QHZlH81MAdBWwkxoOKhm-29">
          <mxGeometry relative="1" as="geometry">
            <Array as="points">
              <mxPoint x="300" y="910" />
              <mxPoint x="420" y="910" />
            </Array>
          </mxGeometry>
        </mxCell>
      </root>
    </mxGraphModel>
  </diagram>
</mxfile>
